<svg width="51" height="48" viewBox="0 0 51 48" fill="none" xmlns="http://www.w3.org/2000/svg">
  <g clip-path="url(#clip0_71_6)">
    <g clip-path="url(#clip1_71_6)">
      <ellipse cx="25.135" cy="24" rx="25.135" ry="24" fill="black"/>
      <path d="M0 23.9998C0 10.7452 11.2536 0 25.1354 0C39.0172 0 50.2708 10.7452 50.2714 23.9998C50.2714 37.2544 39.0178 47.9996 25.1354 48.0001C11.2536 48.0001 0 37.2549 0 23.9998ZM25.1354 45.5016C37.5724 45.5016 47.6546 35.8749 47.6546 23.9998C47.6546 12.1247 37.5724 2.49798 25.1354 2.49855C12.6984 2.49855 2.61618 12.1252 2.61678 23.9998C2.61678 35.8749 12.699 45.5016 25.1354 45.5016Z" fill="#FE0039"/>
      <g clip-path="url(#clip2_71_6)">
        <g clip-path="url(#clip3_71_6)">
          <path d="M12.5645 17.3323C12.7255 21.174 12.94 25.0158 13.101 28.8576C13.2083 31.1114 12.2963 33.3141 14.9787 33.5702C19.1095 33.9287 23.4013 33.6726 27.5322 33.6726C29.5708 33.6726 31.6094 33.6726 33.648 33.6726C34.3991 33.6726 36.0085 34.0312 36.6523 33.4165C37.2424 32.8531 37.1351 31.47 37.2424 30.7017C37.457 28.8576 37.6179 26.9623 37.6716 25.067C37.7252 23.1718 37.7252 21.3277 37.6179 19.4324C37.5643 18.408 37.6716 17.3323 36.9741 16.5639C36.545 16.0517 34.56 16.359 34.0772 16.359C31.7167 16.3078 29.2489 16.3078 26.7811 16.359C22.2211 16.4102 17.661 16.3078 13.1546 16.7688C12.7255 16.82 12.7255 17.4347 13.1546 17.4347C19.3777 16.7688 25.8155 16.9737 32.0386 16.9737C33.3261 16.9737 36.7059 16.4102 36.9741 18.4592C37.1351 19.9959 37.1351 21.6351 37.1351 23.1718C37.1351 24.5036 37.2424 32.9043 35.7402 33.0067C29.7854 33.4165 23.6696 33.0579 17.7147 33.0067C16.6954 33.0067 14.0666 33.3653 13.9593 31.7261C13.9057 30.1382 13.7984 28.5503 13.7448 26.9111C13.5302 23.7352 13.3692 20.5081 13.2619 17.3323C13.2083 16.9225 12.5645 16.9225 12.5645 17.3323Z" fill="#C1C1C1"/>
          <path d="M15.7834 19.33C15.8907 21.3278 15.9443 23.3255 16.0516 25.3232C16.1053 26.9624 15.9443 28.8064 16.2662 30.3944C16.6954 32.2896 20.9872 31.3164 22.3284 31.3164C23.6696 31.2652 28.7124 31.7262 29.6244 30.2407C30.1609 29.3699 29.7317 27.6795 29.7317 26.7575C29.7317 24.5036 29.7317 22.2498 29.7317 19.996C29.7317 19.8423 29.6244 19.7398 29.4635 19.6886C27.8004 19.1764 26.1374 19.2276 24.367 19.2276C21.5773 19.2276 18.7876 19.1764 16.0516 19.0739C15.6224 19.0739 15.6224 19.6886 16.0516 19.7398C19.4314 19.8935 22.8112 19.8935 26.2447 19.8935C28.927 19.8935 29.0343 20.6106 29.0343 22.9157C29.0343 24.8622 29.0343 26.8087 29.0343 28.704C29.0343 31.4188 20.3434 30.7017 18.3585 30.7017C15.7834 30.7017 16.4272 21.0717 16.3735 19.33C16.4272 18.9203 15.7834 18.9203 15.7834 19.33Z" fill="#C1C1C1"/>
          <path d="M17.8756 13.5417C19.4314 14.054 20.397 16.7688 22.2747 16.7688C22.9721 16.7688 23.5622 16.1029 24.0451 15.7444C25.0644 14.976 25.9227 14.0028 26.7274 13.0295C26.9957 12.7222 26.5128 12.2612 26.2446 12.6197C25.2789 13.7979 23.0794 16.7688 21.3627 15.6419C20.1824 14.8736 19.3777 13.3881 18.0365 12.9271C17.6073 12.8246 17.4464 13.4393 17.8756 13.5417Z" fill="#C1C1C1"/>
          <path d="M32.1995 25.1695C33.1652 25.1695 34.1308 25.1183 35.0428 25.1183C35.472 25.1183 35.472 24.4524 35.0428 24.4524C34.0772 24.4524 33.1115 24.5036 32.1995 24.5036C31.7703 24.5548 31.7703 25.1695 32.1995 25.1695Z" fill="#C1C1C1"/>
          <path d="M32.0385 26.9624C33.2724 27.1161 34.56 27.1673 35.7939 27.1161C36.2231 27.1161 36.2231 26.4502 35.7939 26.4502C34.6136 26.5014 33.3797 26.5014 32.1995 26.2965C31.824 26.2453 31.6094 26.9112 32.0385 26.9624Z" fill="#C1C1C1"/>
          <path d="M32.5214 29.2675C33.3261 29.2675 34.1845 29.3187 34.9892 29.3187C35.4184 29.3187 35.4184 28.704 34.9892 28.6528C34.1845 28.6528 33.3261 28.6016 32.5214 28.6016C32.0922 28.6528 32.0922 29.2675 32.5214 29.2675Z" fill="#C1C1C1"/>
          <path d="M32.8969 19.6886C34.1845 19.6886 34.56 21.6351 33.3798 22.0961C32.1995 22.5059 31.7703 20.0471 32.8433 19.6886C33.2188 19.5349 33.0579 18.9202 32.6824 19.0739C30.912 19.6886 31.3948 23.1206 33.4334 22.762C35.5257 22.4034 35.0428 19.1251 32.9506 19.0739C32.4678 19.0227 32.4678 19.6374 32.8969 19.6886Z" fill="#C1C1C1"/>
          <path d="M33.5407 33.6214C33.5407 33.9287 33.487 34.2361 33.487 34.5434C33.487 34.5946 33.487 34.6459 33.487 34.7483C33.5407 34.9532 33.487 35.0044 33.3261 34.8508C33.1115 34.7995 32.9506 34.7995 32.736 34.7483C32.3604 34.6971 32.0922 34.6971 31.8776 34.3385C31.663 34.0312 31.6094 33.6726 31.663 33.3141C31.7167 32.9043 31.0192 32.9043 30.9656 33.3141C30.912 33.8263 31.0729 34.3385 31.3411 34.7995C31.663 35.3118 32.1458 35.3118 32.6823 35.4142C33.0579 35.4655 33.7553 35.6703 33.9699 35.2606C34.0772 35.1069 34.0772 34.902 34.0772 34.7483C34.0772 34.3898 34.1308 34.0312 34.1308 33.6726C34.2381 33.2116 33.5943 33.2116 33.5407 33.6214Z" fill="#C1C1C1"/>
          <path d="M19.4314 33.519C19.4314 33.7751 19.4314 34.0313 19.4314 34.2874C19.4314 34.441 19.485 34.7996 19.4314 34.8508C19.485 34.7996 19.5387 34.7484 19.646 34.6972C19.2168 34.7996 18.6266 34.6972 18.1975 34.6459C17.9829 34.6459 18.0902 34.5947 18.0365 34.3386C18.0365 34.0825 17.9829 33.8264 17.9829 33.5702C17.9292 33.1605 17.2855 33.1605 17.2855 33.5702C17.2855 33.8264 17.3391 34.0825 17.3391 34.3386C17.3391 34.5435 17.3391 34.7996 17.4464 35.0045C17.7146 35.4143 18.3584 35.3119 18.7876 35.3119C19.1631 35.3119 19.8069 35.4655 20.0215 35.107C20.1288 34.9021 20.0751 34.5947 20.0751 34.3898C20.0751 34.0825 20.0751 33.7751 20.0751 33.4678C20.0751 33.1092 19.4314 33.1092 19.4314 33.519Z" fill="#C1C1C1"/>
        </g>
      </g>
    </g>
  </g>
  <defs>
    <clipPath id="clip0_71_6">
      <rect width="50.2713" height="48" fill="white"/>
    </clipPath>
    <clipPath id="clip1_71_6">
      <rect width="50.2713" height="48" fill="white"/>
    </clipPath>
    <clipPath id="clip2_71_6">
      <rect width="25.1423" height="23.0217" fill="white" transform="translate(12.5645 12.4891)"/>
    </clipPath>
    <clipPath id="clip3_71_6">
      <rect width="25.1423" height="23.0217" fill="white" transform="translate(12.5645 12.4891)"/>
    </clipPath>
  </defs>
</svg>
